<mxfile host="65bd71144e">
    <diagram id="z6AAfo2BdNehpr2UKJ_Z" name="第 1 页">
        <mxGraphModel dx="1150" dy="825" grid="1" gridSize="10" guides="1" tooltips="1" connect="1" arrows="1" fold="1" page="1" pageScale="1" pageWidth="827" pageHeight="1169" math="0" shadow="0">
            <root>
                <mxCell id="0"/>
                <mxCell id="1" parent="0"/>
                <mxCell id="5" style="edgeStyle=none;html=1;entryX=0;entryY=0.5;entryDx=0;entryDy=0;labelBackgroundColor=none;" parent="1" source="11" target="18" edge="1">
                    <mxGeometry relative="1" as="geometry"/>
                </mxCell>
                <mxCell id="6" style="edgeStyle=none;html=1;entryX=0.01;entryY=0.733;entryDx=0;entryDy=0;labelBackgroundColor=none;entryPerimeter=0;" parent="1" source="11" target="101" edge="1">
                    <mxGeometry relative="1" as="geometry">
                        <mxPoint x="350" y="540" as="targetPoint"/>
                    </mxGeometry>
                </mxCell>
                <mxCell id="7" style="edgeStyle=none;html=1;entryX=0;entryY=0.5;entryDx=0;entryDy=0;labelBackgroundColor=none;" parent="1" source="11" target="26" edge="1">
                    <mxGeometry relative="1" as="geometry"/>
                </mxCell>
                <mxCell id="8" style="edgeStyle=none;html=1;entryX=0;entryY=0;entryDx=0;entryDy=0;" parent="1" source="11" target="30" edge="1">
                    <mxGeometry relative="1" as="geometry"/>
                </mxCell>
                <mxCell id="10" style="edgeStyle=none;html=1;entryX=0.21;entryY=0.16;entryDx=0;entryDy=0;entryPerimeter=0;" parent="1" source="11" target="33" edge="1">
                    <mxGeometry relative="1" as="geometry"/>
                </mxCell>
                <mxCell id="11" value="普通用户" style="shape=umlActor;verticalLabelPosition=bottom;verticalAlign=top;html=1;outlineConnect=0;labelBackgroundColor=none;" parent="1" vertex="1">
                    <mxGeometry x="144" y="510" width="30" height="60" as="geometry"/>
                </mxCell>
                <mxCell id="15" style="edgeStyle=none;html=1;entryX=0;entryY=0.667;entryDx=0;entryDy=0;entryPerimeter=0;labelBackgroundColor=none;" parent="1" source="18" target="56" edge="1">
                    <mxGeometry relative="1" as="geometry"/>
                </mxCell>
                <mxCell id="16" style="edgeStyle=none;html=1;entryX=0;entryY=0.5;entryDx=0;entryDy=0;labelBackgroundColor=none;" parent="1" source="18" target="58" edge="1">
                    <mxGeometry relative="1" as="geometry"/>
                </mxCell>
                <mxCell id="17" style="edgeStyle=none;html=1;entryX=-0.004;entryY=0.329;entryDx=0;entryDy=0;entryPerimeter=0;labelBackgroundColor=none;" parent="1" source="18" target="61" edge="1">
                    <mxGeometry relative="1" as="geometry"/>
                </mxCell>
                <mxCell id="18" value="聊天管理" style="ellipse;whiteSpace=wrap;html=1;labelBackgroundColor=none;" parent="1" vertex="1">
                    <mxGeometry x="290" y="410" width="80" height="30" as="geometry"/>
                </mxCell>
                <mxCell id="24" style="edgeStyle=none;html=1;entryX=0;entryY=0.5;entryDx=0;entryDy=0;labelBackgroundColor=none;" parent="1" source="26" target="74" edge="1">
                    <mxGeometry relative="1" as="geometry"/>
                </mxCell>
                <mxCell id="25" style="edgeStyle=none;html=1;entryX=0;entryY=0.5;entryDx=0;entryDy=0;labelBackgroundColor=none;" parent="1" source="26" target="75" edge="1">
                    <mxGeometry relative="1" as="geometry"/>
                </mxCell>
                <mxCell id="26" value="求职者管理" style="ellipse;whiteSpace=wrap;html=1;labelBackgroundColor=none;" parent="1" vertex="1">
                    <mxGeometry x="350" y="600" width="80" height="30" as="geometry"/>
                </mxCell>
                <mxCell id="27" style="edgeStyle=none;html=1;" parent="1" source="30" target="83" edge="1">
                    <mxGeometry relative="1" as="geometry"/>
                </mxCell>
                <mxCell id="28" style="edgeStyle=none;html=1;entryX=0;entryY=0.5;entryDx=0;entryDy=0;" parent="1" source="30" target="84" edge="1">
                    <mxGeometry relative="1" as="geometry"/>
                </mxCell>
                <mxCell id="29" style="edgeStyle=none;html=1;entryX=0;entryY=0.333;entryDx=0;entryDy=0;entryPerimeter=0;" parent="1" source="30" target="85" edge="1">
                    <mxGeometry relative="1" as="geometry"/>
                </mxCell>
                <mxCell id="30" value="联系客服" style="ellipse;whiteSpace=wrap;html=1;labelBackgroundColor=none;" parent="1" vertex="1">
                    <mxGeometry x="337" y="670" width="80" height="30" as="geometry"/>
                </mxCell>
                <mxCell id="31" style="edgeStyle=none;html=1;entryX=0.044;entryY=0.332;entryDx=0;entryDy=0;entryPerimeter=0;" parent="1" source="33" target="87" edge="1">
                    <mxGeometry relative="1" as="geometry"/>
                </mxCell>
                <mxCell id="33" value="权限管理" style="ellipse;whiteSpace=wrap;html=1;labelBackgroundColor=none;" parent="1" vertex="1">
                    <mxGeometry x="290" y="740" width="80" height="30" as="geometry"/>
                </mxCell>
                <mxCell id="55" style="edgeStyle=none;html=1;entryX=0;entryY=0.667;entryDx=0;entryDy=0;entryPerimeter=0;labelBackgroundColor=none;" parent="1" source="56" target="66" edge="1">
                    <mxGeometry relative="1" as="geometry"/>
                </mxCell>
                <mxCell id="56" value="实时聊天" style="ellipse;whiteSpace=wrap;html=1;labelBackgroundColor=none;" parent="1" vertex="1">
                    <mxGeometry x="380" y="290" width="80" height="30" as="geometry"/>
                </mxCell>
                <mxCell id="57" style="edgeStyle=none;html=1;entryX=0;entryY=0.5;entryDx=0;entryDy=0;labelBackgroundColor=none;" parent="1" source="58" target="65" edge="1">
                    <mxGeometry relative="1" as="geometry"/>
                </mxCell>
                <mxCell id="58" value="离线聊天" style="ellipse;whiteSpace=wrap;html=1;labelBackgroundColor=none;" parent="1" vertex="1">
                    <mxGeometry x="440" y="335" width="80" height="30" as="geometry"/>
                </mxCell>
                <mxCell id="59" style="edgeStyle=none;html=1;entryX=-0.011;entryY=0.633;entryDx=0;entryDy=0;entryPerimeter=0;labelBackgroundColor=none;" parent="1" source="61" target="69" edge="1">
                    <mxGeometry relative="1" as="geometry"/>
                </mxCell>
                <mxCell id="60" style="edgeStyle=none;html=1;entryX=0;entryY=0.5;entryDx=0;entryDy=0;labelBackgroundColor=none;" parent="1" source="61" target="81" edge="1">
                    <mxGeometry relative="1" as="geometry"/>
                </mxCell>
                <mxCell id="61" value="聊天管理" style="ellipse;whiteSpace=wrap;html=1;labelBackgroundColor=none;" parent="1" vertex="1">
                    <mxGeometry x="470" y="390" width="80" height="30" as="geometry"/>
                </mxCell>
                <mxCell id="62" value="include" style="edgeLabel;resizable=0;html=1;align=center;verticalAlign=middle;labelBackgroundColor=none;" parent="1" connectable="0" vertex="1">
                    <mxGeometry x="350.0003233001896" y="349.9994968890866" as="geometry">
                        <mxPoint x="1" y="-3" as="offset"/>
                    </mxGeometry>
                </mxCell>
                <mxCell id="63" value="include" style="edgeLabel;resizable=0;html=1;align=center;verticalAlign=middle;labelBackgroundColor=none;" parent="1" connectable="0" vertex="1">
                    <mxGeometry x="390.0003233001896" y="374.9994968890866" as="geometry"/>
                </mxCell>
                <mxCell id="64" value="include" style="edgeLabel;resizable=0;html=1;align=center;verticalAlign=middle;labelBackgroundColor=none;" parent="1" connectable="0" vertex="1">
                    <mxGeometry x="420.0003233001896" y="404.9994968890866" as="geometry">
                        <mxPoint x="-2" y="-2" as="offset"/>
                    </mxGeometry>
                </mxCell>
                <mxCell id="65" value="未读消息" style="ellipse;whiteSpace=wrap;html=1;labelBackgroundColor=none;" parent="1" vertex="1">
                    <mxGeometry x="560" y="270" width="80" height="30" as="geometry"/>
                </mxCell>
                <mxCell id="66" value="在线提示" style="ellipse;whiteSpace=wrap;html=1;labelBackgroundColor=none;" parent="1" vertex="1">
                    <mxGeometry x="510" y="210" width="80" height="30" as="geometry"/>
                </mxCell>
                <mxCell id="67" value="include" style="edgeLabel;resizable=0;html=1;align=center;verticalAlign=middle;labelBackgroundColor=none;" parent="1" connectable="0" vertex="1">
                    <mxGeometry x="450.0003233001896" y="259.9994968890866" as="geometry">
                        <mxPoint x="1" y="-3" as="offset"/>
                    </mxGeometry>
                </mxCell>
                <mxCell id="68" value="include" style="edgeLabel;resizable=0;html=1;align=center;verticalAlign=middle;labelBackgroundColor=none;" parent="1" connectable="0" vertex="1">
                    <mxGeometry x="530.0003233001896" y="309.9994968890866" as="geometry">
                        <mxPoint x="1" y="-3" as="offset"/>
                    </mxGeometry>
                </mxCell>
                <mxCell id="69" value="删除聊天" style="ellipse;whiteSpace=wrap;html=1;labelBackgroundColor=none;" parent="1" vertex="1">
                    <mxGeometry x="630" y="335" width="80" height="30" as="geometry"/>
                </mxCell>
                <mxCell id="70" value="include" style="edgeLabel;resizable=0;html=1;align=center;verticalAlign=middle;labelBackgroundColor=none;" parent="1" connectable="0" vertex="1">
                    <mxGeometry x="590.0003233001896" y="364.9994968890866" as="geometry">
                        <mxPoint x="1" y="-3" as="offset"/>
                    </mxGeometry>
                </mxCell>
                <mxCell id="74" value="删除" style="ellipse;whiteSpace=wrap;html=1;labelBackgroundColor=none;" parent="1" vertex="1">
                    <mxGeometry x="520" y="585" width="80" height="30" as="geometry"/>
                </mxCell>
                <mxCell id="75" value="查看求职者信息" style="ellipse;whiteSpace=wrap;html=1;labelBackgroundColor=none;" parent="1" vertex="1">
                    <mxGeometry x="520" y="640" width="80" height="30" as="geometry"/>
                </mxCell>
                <mxCell id="81" value="删除聊天" style="ellipse;whiteSpace=wrap;html=1;labelBackgroundColor=none;" parent="1" vertex="1">
                    <mxGeometry x="650" y="440" width="80" height="30" as="geometry"/>
                </mxCell>
                <mxCell id="82" value="include" style="edgeLabel;resizable=0;html=1;align=center;verticalAlign=middle;labelBackgroundColor=none;" parent="1" connectable="0" vertex="1">
                    <mxGeometry x="600.0003233001896" y="424.9994968890866" as="geometry">
                        <mxPoint x="1" y="-3" as="offset"/>
                    </mxGeometry>
                </mxCell>
                <mxCell id="83" value="离线交流" style="ellipse;whiteSpace=wrap;html=1;labelBackgroundColor=none;" parent="1" vertex="1">
                    <mxGeometry x="520" y="690" width="80" height="30" as="geometry"/>
                </mxCell>
                <mxCell id="84" value="邮件和电话交流" style="ellipse;whiteSpace=wrap;html=1;labelBackgroundColor=none;" parent="1" vertex="1">
                    <mxGeometry x="510" y="740" width="80" height="30" as="geometry"/>
                </mxCell>
                <mxCell id="85" value="常规问题解答" style="ellipse;whiteSpace=wrap;html=1;labelBackgroundColor=none;" parent="1" vertex="1">
                    <mxGeometry x="510" y="790" width="80" height="30" as="geometry"/>
                </mxCell>
                <mxCell id="87" value="更改资质文件" style="ellipse;whiteSpace=wrap;html=1;labelBackgroundColor=none;" parent="1" vertex="1">
                    <mxGeometry x="480" y="850" width="80" height="30" as="geometry"/>
                </mxCell>
                <mxCell id="94" value="include" style="edgeLabel;resizable=0;html=1;align=center;verticalAlign=middle;labelBackgroundColor=none;" parent="1" connectable="0" vertex="1">
                    <mxGeometry x="483.00374737422794" y="639.9955700556081" as="geometry"/>
                </mxCell>
                <mxCell id="96" value="include" style="edgeLabel;resizable=0;html=1;align=center;verticalAlign=middle;labelBackgroundColor=none;" parent="1" connectable="0" vertex="1">
                    <mxGeometry x="540.0037473742279" y="614.9955700556081" as="geometry">
                        <mxPoint x="-58" y="112" as="offset"/>
                    </mxGeometry>
                </mxCell>
                <mxCell id="98" value="include" style="edgeLabel;resizable=0;html=1;align=center;verticalAlign=middle;labelBackgroundColor=none;" parent="1" connectable="0" vertex="1">
                    <mxGeometry x="580.0037473742279" y="619.9955700556081" as="geometry">
                        <mxPoint x="-157" y="186" as="offset"/>
                    </mxGeometry>
                </mxCell>
                <mxCell id="104" style="edgeStyle=none;html=1;entryX=0;entryY=0.5;entryDx=0;entryDy=0;" parent="1" source="101" target="102" edge="1">
                    <mxGeometry relative="1" as="geometry"/>
                </mxCell>
                <mxCell id="105" style="edgeStyle=none;html=1;entryX=0;entryY=0.5;entryDx=0;entryDy=0;" parent="1" source="101" target="103" edge="1">
                    <mxGeometry relative="1" as="geometry"/>
                </mxCell>
                <mxCell id="101" value="招聘管理" style="ellipse;whiteSpace=wrap;html=1;labelBackgroundColor=none;" parent="1" vertex="1">
                    <mxGeometry x="320" y="510" width="80" height="30" as="geometry"/>
                </mxCell>
                <mxCell id="102" value="审核状态" style="ellipse;whiteSpace=wrap;html=1;labelBackgroundColor=none;" parent="1" vertex="1">
                    <mxGeometry x="510" y="480" width="80" height="30" as="geometry"/>
                </mxCell>
                <mxCell id="103" value="增删改查" style="ellipse;whiteSpace=wrap;html=1;labelBackgroundColor=none;" parent="1" vertex="1">
                    <mxGeometry x="510" y="540" width="80" height="30" as="geometry"/>
                </mxCell>
                <mxCell id="106" value="include" style="edgeLabel;resizable=0;html=1;align=center;verticalAlign=middle;labelBackgroundColor=none;" parent="1" connectable="0" vertex="1">
                    <mxGeometry x="500.0003233001896" y="444.9994968890866" as="geometry">
                        <mxPoint x="-28" y="61" as="offset"/>
                    </mxGeometry>
                </mxCell>
                <mxCell id="107" value="include" style="edgeLabel;resizable=0;html=1;align=center;verticalAlign=middle;labelBackgroundColor=none;" parent="1" connectable="0" vertex="1">
                    <mxGeometry x="510.0003233001896" y="464.9994968890866" as="geometry">
                        <mxPoint x="-42" y="81" as="offset"/>
                    </mxGeometry>
                </mxCell>
                <mxCell id="108" value="include" style="edgeLabel;resizable=0;html=1;align=center;verticalAlign=middle;labelBackgroundColor=none;" parent="1" connectable="0" vertex="1">
                    <mxGeometry x="520.0003233001896" y="509.9994968890866" as="geometry">
                        <mxPoint x="-42" y="81" as="offset"/>
                    </mxGeometry>
                </mxCell>
            </root>
        </mxGraphModel>
    </diagram>
</mxfile>